<mxfile host="app.diagrams.net" modified="2023-08-21T02:07:46.528Z" agent="Mozilla/5.0 (Windows NT 10.0; Win64; x64) AppleWebKit/537.36 (KHTML, like Gecko) Chrome/115.0.0.0 Safari/537.36" version="21.6.8" etag="_e-w3QZM_WgXksK6MKds" type="github">
  <diagram name="第 1 页" id="oPdr3yAR0lIEWbnU73x8">
    <mxGraphModel>
      <root>
        <mxCell id="0" />
        <mxCell id="1" parent="0" />
      </root>
    </mxGraphModel>
  </diagram>
</mxfile>
